<?xml version="1.0" encoding="utf-8"?>
<!-- Generator: Adobe Illustrator 23.1.1, SVG Export Plug-In . SVG Version: 6.00 Build 0)  -->
<svg version="1.1" id="Layer_1" xmlns="http://www.w3.org/2000/svg" xmlns:xlink="http://www.w3.org/1999/xlink" x="0px" y="0px"
	 viewBox="0 0 311.7 84.8" style="enable-background:new 0 0 311.7 84.8;" xml:space="preserve">
<style type="text/css">
	.st0{fill:#800000;}
	.st1{fill:#FFFFFF;}
	.st2{fill:none;stroke:#FFFFFF;stroke-width:0.5;}
	.st3{fill:none;}
	.st4{enable-background:new    ;}
</style>
<rect id="Rectangle_162" y="-0.1" class="st0" width="312.6" height="84.8"/>
<g id="Group_119" transform="translate(-382.133 -11.066)">
	<g id="Artwork_2" transform="translate(477.609 43.323)">
		<path id="Artwork_2-2" class="st1" d="M111.1-8.1L111.1-8.1c0-0.4-0.1-1.1-0.1-1.7v-0.2h-0.1c-0.2,0-0.9,0-1.7,0h-2.3l-1.5-0.1h0
			c-0.1,0.1-0.1,0.1-0.1,0.2c0,0.1,0,0.2,0.1,0.2l0.2,0.1c0.7,0.1,0.7,0.1,0.7,1.5v4.6c0,1.4,0,1.4-0.7,1.5l-0.3,0h0
			c-0.1,0.1-0.1,0.2-0.1,0.3c0,0.1,0.1,0.2,0.1,0.2h0.1l1.6,0l1.7,0h0.1c0.1-0.1,0.1-0.1,0.1-0.2c0-0.1,0-0.2-0.1-0.2l-0.5,0
			c-0.7,0-0.7-0.1-0.7-1.5V-5c0-0.2,0-0.2,0.3-0.2h0.9c0.3,0,0.6,0,1,0.1c0.2,0.1,0.3,0.2,0.3,0.4l0.1,0.5h0c0.2,0.1,0.3,0.1,0.5,0
			h0c0-0.2,0-0.3,0-0.5c0-0.2,0-0.5,0-0.8c0-0.2,0-0.5,0-0.8s0-0.4,0-0.5h0c-0.1-0.1-0.2-0.1-0.2-0.1c-0.1,0-0.2,0-0.2,0.1L110-6.3
			c-0.1,0.3-0.2,0.3-0.2,0.4c-0.3,0.1-0.7,0.1-1.1,0.1h-0.9c-0.3,0-0.3,0-0.3-0.2v-2.8c0-0.4,0-0.4,0.3-0.4h0.8c0.4,0,0.8,0,1.2,0.1
			c0.6,0.1,0.7,0.5,0.8,1.1h0C110.8-7.9,111-7.9,111.1-8.1L111.1-8.1L111.1-8.1z M102.5-5.6c0.1-2.4-1.8-4.4-4.1-4.5
			c-0.1,0-0.3,0-0.4,0c-2.5-0.1-4.6,1.9-4.7,4.4c0,0.1,0,0.1,0,0.2C93.2-3,95.2-1,97.6-1c0.1,0,0.2,0,0.3,0c2.5,0,4.5-1.9,4.6-4.4
			C102.5-5.4,102.5-5.5,102.5-5.6L102.5-5.6z M101-5.2c0,2.6-1.6,3.6-2.9,3.6c-2.7,0-3.4-2.7-3.4-4.3c0-2.7,1.6-3.6,3-3.6
			C100.1-9.4,101-7.1,101-5.2C101-5.1,101-5.1,101-5.2z M90.5,16.7c0,5.5,4.1,10.4,11,10.4c5.8,0.1,10.6-4.5,10.7-10.3
			c0-0.1,0-0.3,0-0.4c0-5.4-3.6-10.6-10.7-10.6c-5.9-0.2-10.8,4.4-11,10.3C90.5,16.3,90.5,16.5,90.5,16.7z M93.6,15.7
			c0-6.7,4.1-8.9,7.3-8.9c5.9,0,8.1,5.5,8.1,10.6c0,6.1-3.5,8.8-7.2,8.8C95.8,26.2,93.6,20.3,93.6,15.7L93.6,15.7z M86.8-9.4
			c0.1-0.1,0.1-0.3,0-0.4c0,0,0,0-0.1,0h-0.1c-0.8,0.1-1.6,0.1-2.4,0h-0.1c-0.1,0-0.1,0.1-0.1,0.2c0,0.1,0,0.2,0.1,0.3h0.3
			c0.2,0,0.3,0.1,0.5,0.1c-0.2,0.5-0.5,1-0.8,1.5l-0.1,0.1c-0.3,0.6-0.7,1.2-1.1,2c-0.3-0.6-0.7-1.3-1-2l-0.4-0.8
			c-0.2-0.3-0.3-0.6-0.4-0.9c0,0,0.1-0.1,0.5-0.1h0.2C82-9.5,82-9.6,82-9.7c0-0.1-0.1-0.1-0.2-0.2h-3c-0.1,0-0.1,0.1-0.1,0.2
			c0,0.1,0,0.2,0.1,0.3h0l0.4,0.1c0.3,0.1,0.5,0.1,0.9,0.9l1.5,2.9c0.3,0.5,0.4,1,0.4,1.5v0.7c0,1.4,0,1.5-0.7,1.5l-0.4,0h0
			c-0.1,0.1-0.1,0.2-0.1,0.3c0,0.1,0.1,0.2,0.1,0.2h0.1l1.7,0l1.7,0h0.1c0.1,0,0.1-0.1,0.1-0.2c0-0.1,0-0.2-0.1-0.3h0l-0.5,0
			c-0.6,0-0.7-0.1-0.7-1.5v-0.7c-0.1-0.7,0.1-1.4,0.6-2l0.8-1.4L85-7.7c0.5-0.9,0.9-1.5,1.4-1.6L86.8-9.4L86.8-9.4z M82.3,6.3
			C81,6,79.7,5.8,78.4,5.8c-4.7,0-7.7,1.4-9.8,3.6c-1.8,2-2.8,4.6-2.8,7.3c0,2.6,1,5.1,2.8,7c2.4,2.4,5.7,3.4,9.4,3.4
			c1.9-0.1,3.7-0.3,5.5-0.8c0.5-0.1,1-0.2,1.5-0.3c0.1-0.1,0.1-0.2,0.1-0.4c0,0,0,0,0,0c-0.6-0.2-0.7-1-0.7-2.2v-1.7
			c0-1.6,0-2.4,1.3-2.6l0.5,0c0.2-0.2,0.2-0.5,0-0.8l0,0c-1,0-2.1,0.1-3.3,0.1c-1.8,0-3.5,0-4.4-0.1c-0.2,0.1-0.2,0.7,0,0.8l1.4,0.1
			c1.9,0.2,2,0.4,2,3v1.2c0.1,0.6-0.1,1.2-0.3,1.7c-1,0.7-2.2,1-3.4,0.9c-6.2,0-9.2-4.6-9.2-10.6c0-4.6,2.6-8.9,8.6-8.9
			c3.1,0,5.5,1,6.3,4.4c0.2,0.2,0.7,0.1,0.8-0.1c-0.2-1.5-0.4-3-0.5-4.5C83.6,6.5,83,6.5,82.3,6.3L82.3,6.3z M77.1-10.1L77.1-10.1
			c-0.1-0.1-0.2-0.1-0.2-0.1h-0.2c-0.2,0.3-0.2,0.3-0.9,0.3h-5.3c-0.6,0-0.8,0-0.9-0.3h0l-0.2-0.1c-0.1,0-0.1,0-0.2,0.1h0v0.1
			c-0.1,0.6-0.3,1.3-0.5,1.9h0C68.8-8.1,69-8,69.2-8.1h0c0.1-0.3,0.3-0.6,0.6-0.9c0.5-0.2,1-0.4,1.5-0.3H72c0.3,0,0.3,0,0.3,0.3v5.8
			c0,1.4-0.1,1.4-0.7,1.5l-0.5,0H71c-0.1,0.1-0.2,0.3-0.1,0.4c0,0,0.1,0.1,0.1,0.1H71l1.8,0l1.7,0h0.1c0.1-0.1,0.1-0.1,0.1-0.2
			c0-0.1,0-0.2-0.1-0.2l-0.5,0c-0.6,0-0.7-0.1-0.7-1.5V-9c0-0.1,0-0.2,0-0.3h1.2c0.5,0,1,0.1,1.4,0.3c0.3,0.2,0.2,0.4,0.3,0.9h0
			C76.4-8,76.5-8,76.5-8c0.1,0,0.2,0,0.2-0.1l0,0C76.8-8.7,76.8-9.4,77.1-10.1L77.1-10.1z M65.4-3.2v-4.6c0-1.4,0.1-1.5,0.7-1.5h0.4
			c0.1-0.1,0.1-0.2,0.1-0.2c0-0.1-0.1-0.2-0.1-0.2h-0.1l-1.6,0l-1.6-0.1h0C63-9.8,63-9.7,63-9.6c0,0.1,0,0.2,0.1,0.2h0.4
			c0.7,0.1,0.7,0.1,0.7,1.5v4.6c0,1.4,0,1.4-0.7,1.5l-0.3,0h0C63-1.6,63-1.5,63-1.4c0,0.1,0,0.2,0.1,0.2h0l1.6,0l1.6,0h0.1
			c0.1-0.1,0.1-0.1,0.1-0.2c0-0.1,0-0.2-0.1-0.2l-0.3,0C65.4-1.8,65.4-1.9,65.4-3.2L65.4-3.2z M63.2,25.9c-1.3-0.1-1.7-0.6-2.6-3.3
			l-4.2-12.4c-0.5-1.4-1-2.8-1.4-4.1c-0.1-0.2-0.3-0.3-0.5-0.3c-0.4,0.5-1,0.9-1.6,1.2c0,0.8-0.2,1.5-0.5,2.2l-3.1,8.3
			c-1.3,3.4-2.2,5.5-2.7,6.9s-1.1,1.4-1.8,1.5l-1,0.1c-0.2,0.2-0.1,0.5,0,0.8c0.8,0,1.9-0.1,3-0.1c1.4,0,2.4,0,3.2,0.1
			c0.2-0.2,0.3-0.5,0.1-0.7c0,0,0,0,0,0l-1-0.1c-0.7,0-0.9-0.2-0.9-0.6c0.1-0.9,0.4-1.7,0.7-2.5l1.1-3.2c0.2-0.7,0.4-0.7,1.2-0.7
			h4.7c0.9,0,1,0.1,1.3,0.8l1.4,4.2c0.2,0.5,0.3,1.1,0.4,1.6c0,0.3-0.4,0.5-1.1,0.6L56.8,26c-0.2,0.2-0.2,0.5,0,0.7c0,0,0,0,0,0
			c0.9,0,2.1-0.1,3.5-0.1s2.5,0,3.7,0.1c0.2-0.1,0.2-0.6,0-0.8L63.2,25.9L63.2,25.9z M55.3,17.5h-3.8c-0.9,0-0.9,0-0.7-0.7l2-5.4
			c0.2-0.6,0.5-1.2,0.7-1.8h0c0.3,0.6,0.5,1.3,0.7,1.9l1.7,5C56.2,17.4,56.2,17.5,55.3,17.5L55.3,17.5z M56.6-8.1
			c0-0.5,0.2-1.3,1.4-1.3s1.5,0.7,1.6,1.4h0C59.7-8,59.8-8,59.9-8c0.1,0,0.2,0,0.3-0.1h0c0-0.5-0.1-1.1-0.2-1.6v-0.1h-0.1l-0.4-0.1
			c-0.4-0.1-0.8-0.2-1.2-0.2c-1.6,0-2.7,0.9-2.7,2.3c0,1,0.6,1.9,1.4,2.3l1.2,0.8c0.6,0.3,1,1,1,1.7c0,0.8-0.7,1.4-1.5,1.4
			c0,0,0,0,0,0c-1-0.1-1.9-0.9-2.1-1.8l0,0c0-0.1-0.1-0.1-0.2-0.1c-0.1,0-0.2,0-0.3,0.1h0c0,0.6,0.1,1.2,0.3,1.8h0
			c0.6,0.3,1.3,0.5,2,0.5c1.7,0,2.8-1,2.8-2.5c0-1.1-0.7-2.1-1.6-2.5l-1-0.6C57.1-7,56.7-7.6,56.6-8.1L56.6-8.1z M53.3-1.1
			c0.1,0,0.1-0.1,0.1-0.2c0-0.1-0.1-0.1-0.1-0.1h0c-0.3,0-0.6-0.1-0.8-0.3c-1-1-1.9-2.1-2.5-3.4c0-0.1-0.1-0.1-0.1-0.2
			c1-0.3,1.6-1.2,1.6-2.2c0-0.8-0.4-1.6-1.1-1.9c-0.7-0.3-1.4-0.4-2.2-0.4c-1.2,0-2.1,0-2.9,0.1h0c-0.1,0.1-0.1,0.1-0.1,0.2
			c0,0.1,0,0.2,0.1,0.3h0l0.4,0.1c0.4,0.1,0.5,0.1,0.5,1.4v4.6c0,1.4,0,1.4-0.7,1.5l-0.3,0h0C45-1.6,45-1.4,45-1.3
			c0,0.1,0.1,0.1,0.1,0.2h0l1.6,0l1.5,0h0c0.1,0,0.1-0.1,0.1-0.2c0-0.1,0-0.2-0.1-0.2h0l-0.3,0c-0.7-0.1-0.7-0.1-0.7-1.5v-1.6
			c0-0.2,0-0.2,0.5-0.2c0.3-0.1,0.7,0.1,0.8,0.4l0.6,1l0.6,1C50.8-1.4,51.5-1,52.7-1C52.9-1,53.1-1,53.3-1.1L53.3-1.1z M49.5-5.9
			c-0.4,0.2-0.8,0.3-1.3,0.3c-0.3,0-0.5,0-0.8,0c0-0.1,0-0.2,0-0.3v-3c0-0.3,0-0.3,0.7-0.3c1-0.1,1.8,0.6,1.9,1.6c0,0.1,0,0.2,0,0.2
			C50.1-6.8,49.9-6.3,49.5-5.9L49.5-5.9z M42.8-3L42.8-3c-0.1-0.1-0.2-0.2-0.3-0.2l-0.2,0h0c-0.2,0.5-0.5,0.9-0.9,1.2
			c-0.5,0.1-1.1,0.2-1.6,0.2c-0.5,0.1-1,0-1.5-0.2c-0.2-0.4-0.3-0.8-0.2-1.3v-1.8c0-0.2,0-0.2,0.3-0.2h0.7c0.3,0,0.6,0,1,0.1
			c0.2,0.1,0.3,0.2,0.3,0.4l0.1,0.5v0.1c0.1,0.1,0.2,0.1,0.2,0.1c0.1,0,0.2,0,0.2-0.1h0c0-0.2,0-0.3,0-0.5c0-0.2,0-0.5,0-0.8
			s0-0.5,0-0.8s0-0.4,0-0.5l0,0C41.1-7,41-7.1,40.9-7c-0.1,0-0.2,0-0.2,0.1l-0.1,0.6c0,0.3-0.1,0.3-0.2,0.4
			c-0.3,0.1-0.7,0.1-1.1,0.1h-0.7c-0.3,0-0.3,0-0.3-0.2v-2.7c0-0.4,0-0.4,0.3-0.4h0.9c0.4,0,0.8,0,1.2,0.1c0.6,0.1,0.7,0.5,0.9,1.1
			V-8h0c0,0.1,0.1,0.1,0.2,0.1c0.1,0,0.2,0,0.3-0.1h0v-0.2c0-0.5-0.1-1.1-0.2-1.6v-0.1h-0.1c-0.2,0-0.9,0-1.7,0h-2.4l-1.5-0.1h0
			c-0.1,0.1-0.1,0.1-0.1,0.2c0,0.1,0,0.2,0.1,0.2l0.2,0.1C36.9-9.3,37-9.2,37-7.9v4.6c0,1.4-0.1,1.4-0.7,1.5l-0.5,0h0
			c-0.1,0.1-0.1,0.2-0.1,0.3c0,0.1,0,0.2,0.1,0.2h0l1.7,0h1.2l3.4,0h0.1v0C42.5-1.8,42.7-2.4,42.8-3L42.8-3z M34-9.4
			c0.1-0.1,0.1-0.2,0.1-0.3c0-0.1,0-0.2-0.1-0.2h0l-1.2,0.1h-1.4c-0.1,0.1-0.1,0.1-0.1,0.2c0,0.1,0,0.2,0.1,0.2h0.3
			C32-9.3,32-9.2,32-9.2c0,0.2,0,0.3-0.1,0.4c-0.2,0.6-0.8,2-1.2,2.9l-0.4,0.8c-0.2,0.6-0.5,1.3-0.8,1.8C29-4.6,28.5-6,27.9-7.5
			c-0.2-0.6-0.5-1.2-0.6-1.8c0-0.1,0.1-0.1,0.5-0.1H28c0.1-0.1,0.1-0.2,0.1-0.2c0-0.1,0-0.2-0.1-0.2h0l-1.5,0.1H25
			c-0.1,0.1-0.2,0.3-0.1,0.4c0,0,0,0,0,0.1h0.3c0.5,0.1,0.7,0.3,1,1l2.2,5.6c0.2,0.5,0.4,1.1,0.6,1.7v0h0L29.3-1L29.5-1h0
			c0.2-0.7,0.8-2.2,1.3-3.3l0.7-1.6c0.4-1,0.9-2,1.4-2.9c0.1-0.2,0.3-0.4,0.6-0.5L34-9.4L34-9.4z M25.7,8.5c-2.5,2-3.9,5-3.9,8.2
			c-0.1,3.4,1.6,6.6,4.4,8.5c2.3,1.5,5,2.2,7.7,2c1.6,0,3.3-0.2,4.8-0.7c0.3-0.1,0.7-0.2,1.1-0.3c0.8-1.3,1.3-2.7,1.5-4.2
			c-0.2-0.2-0.5-0.3-0.8-0.1c-0.9,2.7-3.6,4.5-6.4,4.4c-5,0-9.1-3.6-9.1-10s4-9.4,8.7-9.4s5.8,2.4,6.3,4.5c0.2,0.2,0.6,0.2,0.8-0.1
			c-0.2-1.9-0.4-3.8-0.4-4.5c-0.3,0-0.6,0-0.9-0.1c-1.8-0.4-3.6-0.7-5.5-0.7C31,5.8,28,6.7,25.7,8.5L25.7,8.5z M21.7-3.2v-4.6
			c0-1.4,0-1.5,0.7-1.5h0.4c0.1-0.1,0.1-0.2,0.1-0.2c0-0.1,0-0.2-0.1-0.2h0l-1.6,0l-1.6-0.1h0c-0.1,0.1-0.1,0.1-0.1,0.2
			c0,0.1,0,0.2,0.1,0.2h0.4c0.7,0.1,0.7,0.1,0.7,1.5v4.6c0,1.4,0,1.4-0.7,1.5l-0.4,0h0c-0.1,0.1-0.1,0.2-0.1,0.3
			c0,0.1,0,0.2,0.1,0.2h0l1.6,0l1.6,0h0c0.1-0.1,0.1-0.1,0.1-0.2c0-0.1,0-0.2-0.1-0.2l-0.4,0C21.8-1.8,21.7-1.9,21.7-3.2L21.7-3.2z
			 M15.3,22V11c0-3.3,0.1-3.8,1.9-3.9L17.9,7c0.2-0.1,0.1-0.7,0-0.8c-1.5,0.1-2.6,0.1-3.8,0.1s-2.4,0-3.9-0.1C10,6.4,9.9,6.9,10.1,7
			l0.8,0.1c1.8,0.2,1.9,0.7,1.9,3.9v11c0,3.3-0.1,3.7-1.9,3.9L10.1,26c-0.2,0.2-0.1,0.7,0.1,0.8c1.5,0,2.6-0.1,3.9-0.1
			s2.3,0,3.8,0.1c0.2-0.1,0.2-0.7,0-0.8l-0.8-0.1C15.4,25.7,15.3,25.2,15.3,22z M16.9-9.4C16.9-9.5,17-9.6,17-9.6
			c0-0.1-0.1-0.2-0.1-0.2h0l-1.3,0L14-9.9h-0.1c-0.1,0-0.1,0.1-0.1,0.2c0,0.1,0,0.2,0.1,0.3h0.3c0.3,0,0.5,0.1,0.7,0.2
			c0.2,0.9,0.3,1.7,0.2,2.6v3.1c-0.5-0.5-0.9-1-1.5-1.6l-1.8-2C11-7.9,10.3-8.8,9.7-9.8v-0.1H7.6c-0.1,0-0.1,0.1-0.1,0.2
			c0,0.1,0,0.2,0.1,0.3h0.3c0.3,0,0.5,0.1,0.7,0.3c0.2,0.2,0.3,0.6,0.2,0.9v3.9c0,0.8,0,1.7-0.1,2.5C8.5-1.5,8.5-1.8,8.1-1.7
			L7.8-1.7h0c-0.1,0.1-0.1,0.4,0,0.5c0,0,0,0,0,0h0.1l1.3,0l1.5,0h0.1c0.1,0,0.1-0.1,0.1-0.2c0-0.1,0-0.2-0.1-0.3h0l-0.5,0
			c-0.3,0-0.5-0.1-0.6-0.2C9.5-2.8,9.4-3.6,9.4-4.5v-2.8c0-0.2,0-0.4,0-0.7l0.9,1l0.5,0.6l3,3.4c1,1.1,1.5,1.7,1.6,1.9V-1h0.1
			c0.1,0,0.3-0.1,0.3-0.2l0,0c0-0.1,0-0.7,0-2.2v-3.3c0-0.8,0-1.6,0.2-2.4c0.2-0.4,0.2-0.1,0.7-0.2L16.9-9.4
			C16.9-9.4,16.9-9.4,16.9-9.4z M5.4-9.4c0.1-0.1,0.1-0.2,0.1-0.3c0-0.1-0.1-0.1-0.1-0.2h0L4-9.8L2.5-9.9h0C2.4-9.8,2.4-9.8,2.4-9.7
			c0,0.1,0,0.2,0.1,0.2h0.3c0.3,0,0.5,0.1,0.6,0.2c0.2,0.9,0.2,1.7,0.2,2.6v1.5c0,1.5-0.4,3.3-2.5,3.3s-2.5-1.1-2.5-3.3v-2.8
			c0-1.4,0-1.5,0.7-1.5h0.3c0.1-0.1,0.1-0.1,0.1-0.2c0-0.1,0-0.2-0.1-0.2h-0.1L-2-9.9l-1.6-0.1h0c-0.1,0-0.1,0.1-0.1,0.2
			c0,0.1,0,0.2,0.1,0.2h0.4c0.6,0.1,0.7,0.1,0.7,1.5v3c-0.1,1.1,0.2,2.3,1,3.1C-0.9-1.2,0-1,0.9-1.1c0.9,0,1.8-0.3,2.5-1
			c0.7-0.9,1-2,0.9-3.1v-1.4c0-0.9,0-1.7,0.2-2.6C4.6-9.3,4.8-9.4,5-9.4L5.4-9.4L5.4-9.4z M-9.4,7c0.2-0.1,0.1-0.7-0.1-0.8
			c-1.3,0.1-2.4,0.1-3.6,0.1s-2.4-0.1-3.9-0.1c-0.2,0.1-0.2,0.7,0,0.8l0.8,0.1c1.6,0.1,1.8,0.7,1.8,3.9V22c0,3.2-0.1,3.5-1.8,3.8
			l-0.5,0.1c-0.2,0.2-0.1,0.7,0,0.8c1.2,0,2.2-0.1,3.6-0.1s2.2,0,3.9,0.1c0.2-0.1,0.2-0.7,0.1-0.8l-0.9-0.1
			c-1.7-0.2-1.9-0.6-1.9-3.8v-4.3c0-0.9,0.1-1,1.5-1h8.8c1.5,0,1.5,0,1.5,1V22c0,3.2,0,3.5-1.9,3.8L-2.3,26c-0.2,0.2-0.1,0.7,0,0.8
			c1.4,0,2.5-0.1,3.7-0.1s2.2,0,3.7,0.1c0.2-0.1,0.2-0.7,0.1-0.8l-0.7-0.1c-1.8-0.2-1.8-0.6-1.8-3.8V10.9c0-3.2,0-3.7,1.8-3.9l0.7,0
			C5.3,6.9,5.2,6.3,5,6.2C3.7,6.3,2.6,6.3,1.4,6.3s-2.3,0-3.7-0.1c-0.2,0.1-0.2,0.7,0,0.8l0.6,0.1c1.8,0.2,1.9,0.7,1.9,3.9v3.5
			c0,1-0.1,1-1.5,1h-8.8c-1.5,0-1.5,0-1.5-1v-3.5c0-3.2,0.1-3.7,1.8-3.9L-9.4,7L-9.4,7z M-10.6-3L-10.6-3c-0.1-0.1-0.2-0.2-0.3-0.2
			l-0.2,0h0C-11.3-2.7-11.6-2.3-12-2c-0.5,0.1-1.1,0.2-1.6,0.2c-0.5,0.1-1,0-1.5-0.3c-0.2-0.4-0.3-0.8-0.2-1.3v-1.8
			c0-0.2,0-0.2,0.3-0.2h0.7c0.3,0,0.6,0,1,0.1c0.2,0.1,0.3,0.2,0.3,0.4l0.1,0.5v0.1c0.1,0.1,0.2,0.1,0.2,0.1c0.1,0,0.2,0,0.2-0.1h0
			c0-0.2,0-0.3,0-0.5c0-0.2,0-0.5,0-0.8s0-0.5,0-0.8s0-0.4,0-0.5h0C-12.3-7-12.4-7-12.5-7c-0.1,0-0.2,0-0.2,0.1l-0.1,0.5
			c-0.1,0.3-0.1,0.3-0.2,0.4C-13.5-6-13.9-6-14.2-6h-0.7c-0.3,0-0.3,0-0.3-0.2v-2.6c0-0.4,0-0.4,0.3-0.4h0.9c0.4,0,0.8,0,1.2,0.1
			c0.6,0.1,0.7,0.5,0.9,1.1V-8h0c0.1,0.1,0.1,0.1,0.2,0.1c0.1,0,0.2,0,0.3-0.1h0v-0.2c0-0.5-0.1-1.1-0.2-1.6v-0.1h-0.1
			c-0.1,0-0.9,0-1.7,0h-2.4l-1.5-0.1h0c-0.1,0.1-0.1,0.1-0.1,0.2c0,0.1,0,0.2,0.1,0.2l0.2,0.1c0.7,0.1,0.7,0.1,0.7,1.5v4.6
			c0,1.4-0.1,1.4-0.7,1.5l-0.5,0h-0.1c-0.1,0.1-0.1,0.2-0.1,0.3c0,0.1,0,0.2,0.1,0.2h0l1.7,0h1.2l3.4,0h0.1v0
			C-11-1.8-10.8-2.4-10.6-3L-10.6-3z M-21.3-3.2v-4.6c0-1.4,0-1.4,0.7-1.5h0.3c0.1-0.1,0.1-0.2,0.1-0.2c0-0.1,0-0.2-0.1-0.2h0
			l-1.5,0l-1.5-0.1h0c-0.1,0.1-0.1,0.1-0.1,0.2c0,0.1,0,0.2,0.1,0.2l0.3,0.1c0.7,0.1,0.7,0.1,0.7,1.5v1.5c0,0.3,0,0.3-0.5,0.3h-3.7
			c-0.5,0-0.5,0-0.5-0.3v-1.5c0-1.4,0-1.4,0.7-1.5h0.3c0.1-0.1,0.1-0.2,0.1-0.2c0-0.1,0-0.2-0.1-0.2h0l-1.5,0.1h-1.7
			c-0.1,0.1-0.1,0.1-0.1,0.2c0,0.1,0,0.2,0.1,0.2h0.4c0.6,0.1,0.7,0.1,0.7,1.5v4.6c0,1.3,0,1.4-0.7,1.5l-0.2,0h0
			c-0.1,0.1-0.1,0.2-0.1,0.3c0,0.1,0,0.2,0.1,0.2h1.5l1.6,0h0c0.1-0.1,0.1-0.1,0.1-0.2c0-0.1,0-0.2-0.1-0.2l-0.4,0
			c-0.6-0.1-0.7-0.1-0.7-1.5V-5c0-0.3,0-0.3,0.5-0.3h3.7c0.5,0,0.5,0,0.5,0.3v1.8c0,1.4,0,1.4-0.7,1.5l-0.3,0h0
			c-0.1,0.1-0.1,0.2-0.1,0.3c0,0.1,0,0.2,0.1,0.2h0l1.5,0l1.5,0h0c0.1-0.1,0.1-0.1,0.1-0.2c0-0.1,0-0.2-0.1-0.2l-0.4,0
			C-21.4-1.8-21.4-1.9-21.3-3.2L-21.3-3.2z M-31.9-10.1L-31.9-10.1c0-0.1-0.2-0.1-0.2-0.1h-0.2c-0.2,0.3-0.2,0.3-0.9,0.3h-5.3
			c-0.6,0-0.8,0-0.9-0.3h0l-0.2-0.1c-0.1,0-0.1,0-0.2,0.1h0v0.1c-0.1,0.6-0.3,1.3-0.5,1.9h0c0.1,0.2,0.3,0.2,0.5,0.1h0
			c0.1-0.3,0.3-0.6,0.5-0.9c0.5-0.2,1-0.4,1.5-0.3h0.7c0.3,0,0.3,0,0.3,0.3v5.8c0,1.4-0.1,1.4-0.7,1.5l-0.5,0h0
			c-0.1,0.1-0.2,0.3-0.1,0.4c0,0,0,0,0.1,0.1h0l1.8,0l1.7,0h0c0.1-0.1,0.1-0.1,0.1-0.2c0-0.1,0-0.2-0.1-0.2l-0.5,0
			c-0.6,0-0.7-0.1-0.7-1.5V-9c0-0.1,0-0.2,0-0.3h1.2c0.5,0,1,0.1,1.4,0.3c0.3,0.2,0.2,0.4,0.3,0.9h0C-32.5-8-32.4-8-32.3-8
			c0.1,0,0.2,0,0.2-0.1l0,0C-32.1-8.8-32-9.4-31.9-10.1L-31.9-10.1z M-40.6,16.6c-0.1,3.4,1.6,6.6,4.4,8.5c2.3,1.5,5,2.2,7.7,2.1
			c1.6,0,3.3-0.2,4.9-0.7c0.4-0.1,0.7-0.2,1.1-0.3c0.8-1.3,1.3-2.7,1.5-4.2c-0.2-0.2-0.5-0.3-0.8-0.1c-0.9,2.7-3.6,4.5-6.4,4.4
			c-5.1,0-9.1-3.6-9.1-10s4-9.4,8.7-9.4s5.9,2.4,6.3,4.5c0.2,0.2,0.6,0.2,0.8-0.1c-0.2-1.9-0.4-3.8-0.4-4.5c-0.3,0-0.6,0-0.9-0.1
			c-1.8-0.4-3.6-0.7-5.5-0.7c-3-0.1-5.9,0.8-8.3,2.6C-39.2,10.5-40.6,13.5-40.6,16.6L-40.6,16.6z M-48.6,11.4V-10
			c-10-1-20.2-1-30.2,0v21.4c1.4,14.5,15,16.2,15.1,16.2C-61.3,27.2-49.9,24.9-48.6,11.4z M-49.4,11.3c-1.2,13-12,15.1-14.3,15.6
			c-0.1,0-13.1-1.6-14.3-15.6V-9.3c9.5-1,19.2-1,28.7,0V11.3z M-53.7,18.9c0.5-0.7,0.8-1.4,0.9-2.2c-0.3,0.4-0.7,0.7-1.1,0.9
			C-54.2,18.5-54.1,19.4-53.7,18.9L-53.7,18.9z M-53.3,16.9c0.3-0.3,0.6-0.8,1-0.9c-0.3-0.3-0.7,0.3-0.8,0.1
			c0.3-0.4,0.5-0.9,0.5-1.5c0-0.3,0.4-0.6,0.5-0.8c-0.6,0.2-1.1,0.5-1.5,1c-0.7,1.4-1.9,2.4-3.4,2.9c-0.1,0,0.5-0.5,0.7-1
			c0.3-0.6,0.3-1.3,0.2-2c-0.6,0.6-0.5,0.8-0.6,1.2c-0.4,1.1-0.6,1.2-1.7,1.9c-0.1,0.1-0.9,1.3-1.9,1.4c0.1,0,0-0.3,0.4-0.5
			c1.1-0.8,0.7-2.4,2.2-2.6c-0.7-0.2-1.3,0.4-1.4,0.4c0.6-0.8,0.1-1.5,0.2-2.2c-0.2,0.1-0.4,0.3-0.4,0.6c-0.1,1.2-0.7,1.4-0.7,1.9
			c-0.2,0.8-0.6,1.5-1.1,2.1c-0.1-0.5,0.1-1.1,0.7-1.4c0.6-0.4,0-0.9,0-0.9c-0.2,0.8-0.6,1-0.8,1s0.8-1.1,0.7-2.1
			c0-0.4-0.2-0.2-0.2-0.7c-0.9,1-0.2,1.6-1.2,2.8c-0.3,0.5-0.5,1-0.7,1.5c0-1.4,0-1,0.7-2.2s0-1.8-0.1-2.4c-0.6,0.5-1,1.2-1.1,2
			c-0.1-0.5-0.1-0.9,0-1.4c0-0.7-0.1-1.4-0.3-2.1c-1.6,2.5-0.2,5.4-0.4,5.4c-0.7-1.1-1.2-1.1-1.3-2c-0.1-0.4-0.9-2.9-2.4-3
			c0.8,0.7,0.6,0.8,0.6,1.8c-0.5,2.7,3.3,3,3,4.4c-0.7-0.8-1.5-1.5-2.5-1.8c-0.5-0.4-1.1-0.6-1.2-1.3c0.1-0.3,0.1-0.7,0-1
			c-0.1-0.4-0.5-0.2-0.8-1.1c-0.4,0.4-0.6,1.1-0.4,1.7c0.1,0.3,0.1,0.5,0,0.8c-0.3-0.3-0.5-0.5-0.7-0.9c-0.2-0.6-0.4-1.3-0.6-1.9
			c-0.2-0.5-0.3-0.6-0.4-0.6h0c-0.2,0.9,0,1.8,0.4,2.6c-0.1,0.1-0.1,0.2-0.2,0.2c-0.6-0.2-1.1-0.6-1.3-1.1c-0.3,0.2-0.4,0.7-0.2,1
			c-1.2-0.6,0-2.9-1.7-2.9c0.4,0.4,0.2,1,0.1,1.6s1.1,1.6,1.1,1.6c-1.2-0.4-1.5,0.1-1.5,0.1c1.5,0.6,3.1,0.9,4.7,1.1
			c0.4,0,0.9,0.5,0.8,0.5c-0.8-0.3-1.6-0.1-2.2,0.4c0.6,0,1.1,1,2.1,0.5c1.4-0.6,3-0.2,4,0.9c-0.1,0.1-2-1.2-3.5-0.3
			c-0.8,0.5-2.1,0-3.1-0.7c0.6,1.1,1.6,1.9,2.8,2.2c0.6,0,1.6-0.9,2.7-0.9c1.6,0.1,1.9,1.6,1.7,1.4s-1.3-2.1-3,0.1
			c0.9-0.3,1.9-0.3,2.7,0.2c0.1,0-0.2,0.5-0.5,0.7s-0.9,1.2-1.6,0.2c-0.1-0.1-0.5-1.1-2.8-0.9c0.9,0.5,1.7,1.2,2.3,1.9
			c1.2,1.2,3.1-1.5,3.2-1.2c0.1,0.4,0.3,0.8,0.5,1.2c0.4,0.8-0.5,0.7-1,0.5c0,0,1,1.5,1.8,0.7c0.8-0.8-1.2-1.6-0.5-2.4
			s1.7,0.9,2.3,0.9c1.6,0.2,1.5-1.3,2.4-1.3c-0.4-0.5-1.2-0.6-1.8-0.2c0,0,0,0-0.1,0c-0.5,0.6-1.2,0.2-1.6-0.1
			c-0.2-0.3-0.6-0.4-1-0.2c-0.2,0,0.3-0.6,1-0.5c1.2,0.2,2.3,0,3.4-0.5c0.6-0.5,1.1-1,1.6-1.5c-0.2,0-1.4,0.7-1.8,0.9
			c-0.7,0.3-1.5,0.3-2-0.2c-0.1,0-0.2-0.2,0.2-0.3c1.2-0.3,2-1.3,3.2-1.8S-54.4,17.9-53.3,16.9L-53.3,16.9z M-55.7,15.3
			c0,0.2-0.1,0.5-0.1,0.7c0,0,0.3,0.1,0.4,0.2c0.2-0.1,0.4-0.3,0.6-0.5c0,0-0.8-0.7-0.8-0.7C-55.7,15.1-55.7,15.2-55.7,15.3
			L-55.7,15.3z M-55.5,16.4c0,0-0.3-0.2-0.3-0.2l-0.2,0.5C-56.1,16.9-55.9,16.8-55.5,16.4L-55.5,16.4z M-52,13.3
			c-0.1-2.8-1.8-5.9-1.3-5.3c1.2,1.4,1.5,4.6,2.3,7.2c0,0,0.5,0.2,0.4-3.1c0-0.8-0.3-1.6-0.6-2.2c-0.7-1.3-2-3.4-2-3.4
			c0,0,1.1,1.6,1.8,2.3c0.5,0.5,1.1,0.8,1.8,0.9c-1-1.9-3.5-3.8-3.2-4c1.8,1.7,2.4,1.8,2.5,1.7L-52,5.7c-0.3-0.4-0.6-0.7-1-1.1
			c0.7,0.2-0.4-0.6-1.2-0.8c-0.2,0-0.4,0-0.4-0.1s0.2-0.1,0.4-0.1c0.1,0,0.2-0.1,0.2-0.3c-0.3,0.1-0.6,0-0.9-0.1
			c-0.6-0.3-1.4-0.5-2.1-0.4c-0.2,0.1-0.5,0.2-0.6,0.3c-0.1,0-0.5-0.3-1,0.3C-58.8,3.6-58.9,3.8-59,4c0,0.4,0,0,0.1,0.4
			s-0.2,0.4-0.9,0.7C-60,5.2-60.1,5.3-60,5.5c0.2-0.2,0.5-0.2,0.7-0.1c0.7,0.3,0.8-0.2,1.3-0.6c0,0-0.1,0.4,0,0.5
			c0.5,0.1,0.3,0.5,0.3,0.6c-0.7,0.6-0.4,0.8-0.6,1.2c-0.2,0.3-0.7,0.5-1.1,0.4c-0.5,0,0.9-1.1-0.7-1.6c0.2,0.4,0.3,0.8-0.2,1.1
			s-0.2,1.2-1.1,0.8c0,0-0.1,0.8-0.2,0.8c1.2,1.1,0.5,1.6,0.6,3.2c0.4,1,0,1.4-0.1,1.5c0,0.6,0.2,1.1,0.5,1.6c0.4,0.6,0,1,0.3,1.4
			c0.3-1,0.6-0.6,0.7-1.9c0.2-0.3,0.5-0.5,0.8-0.7c0,0.8,0.3,1.6,0.2,1.9c0.3-0.1,0.6-0.1,0.9-0.1c0.2,0.1,0.3,0.2,0.3,0.4
			c-0.2,0.1-0.4,0.2-0.6,0.3c-0.4,0.4-0.7,0.9-0.9,1.4c0.6-0.4,1.1-0.9,1.6-1.4c0.1-0.2,0.2-0.5,0.2-0.7c-0.4-0.2-0.7-0.5-1-0.9
			c-0.7-1.3,1,0.8,1.1,0.6c0.1-0.3,0.2-0.6,0.4-0.9c-0.3-0.2-0.6-0.6-0.8-0.9c-0.9-1.6,1.1,0.7,1.1,0.7c0.5-0.3,0.5,0.1,0.6,0.5
			c0.3,0.3,0.6,0.5,0.9,0.7c0.2-0.2,0.4-0.5,0.5-0.8c-0.7-0.6-1.3-1.3-1.9-1.9c-2.2-3.8,1.8,1.7,2,1.5c0.1-0.4,0.2-0.8,0.1-1.3
			c-0.5-0.4-0.9-0.8-1.2-1.3c-1.9-3.1,1.2,0.9,1.2,0.9c0-0.7-0.6-3.5-0.2-2.7c0.5,1.3,0.7,2.7,0.7,4.1C-53.1,13.7-52.6,13.4-52,13.3
			L-52,13.3z M-50.8-5.1L-50.8-5.1c0-0.6-0.6-1.1-1.2-1c-0.6,0.2-1.3,0.2-1.9-0.1v1.8c0.5,0.1,1.7-0.6,2.2-0.8
			C-51.2-5.4-50.8-5.3-50.8-5.1z M-53.9-2.6v1.8c0.7-0.1,1.5-0.3,2.1-0.7c0.3-0.2,0.8-0.1,1.1,0.1l0,0c0,0-0.2-1.2-1.1-1
			C-53.7-2.2-53.9-2.5-53.9-2.6L-53.9-2.6z M-60.6,0.2c0.9,0,4.6,1,6.4,0.9v-9.2c-1.6,0.2-3.3,0-4.8-0.5c-1.8-0.7-4.4,0.5-4.4,0.5v9
			C-62.6,0.4-61.6,0.2-60.6,0.2L-60.6,0.2z M-62.6-2.8h0.5v1.7c0,0.1,0.1,0.2,0.2,0.1c0.1,0,0.1,0,0,0.1c-0.1,0.1-0.3,0.3-0.4,0.4
			c-0.2-0.1-0.3-0.2-0.3-0.4S-62.6-2.6-62.6-2.8L-62.6-2.8z M-62.1-4.8C-61.8-5-61.4-5-61-5c0.1,0,0.2,0,0.2-0.1s0.1-0.1,0.1,0v0.8
			c0,0.1-0.1,0.1-0.1,0c0-0.1,0-0.2-0.1-0.2c-0.3-0.3-0.8-0.4-1.1-0.1c0,0-0.1,0.1-0.1,0.2c-0.1,0.2-0.2,0.4,0,0.4
			c0.2,0,0.5,0,0.8,0l0.6-0.1c0,0,0.1-0.1,0.1,0v0.4c0,0.1,0,0-0.1,0l-0.5-0.1c-0.3,0-0.5-0.1-0.8-0.1c-0.1,0,0,0.2,0.1,0.4
			c0.1,0.2,0.9,0.5,1.2,0.1c0.1-0.1,0.1-0.2,0.1-0.2c0,0,0.1-0.1,0.1,0V-3c0,0-0.1,0.1-0.1,0s-0.1-0.1-0.2-0.1
			c-0.4,0.1-0.8,0.1-1.1,0c-0.3-0.2-0.6-0.2-0.6-0.9S-62.3-4.7-62.1-4.8L-62.1-4.8z M-60.2-7.6c-0.2,0.1-0.3,0.2-0.3,0.4
			c0,0.2-0.6,1.7-0.6,1.8c-0.2-0.7-0.5-1.3-0.8-1.9c-0.1-0.2-0.3-0.2-0.4-0.2c-0.1,0-0.1-0.1,0-0.1l1.2,0.1c0.1,0,0.1,0.1,0,0.1
			s-0.2,0.1-0.2,0.2c0.1,0.3,0.2,0.6,0.4,0.9c0.2-0.3,0.3-0.7,0.3-1.1c0-0.2-0.1-0.2-0.2-0.2c-0.1,0-0.1-0.1,0-0.1l0.7-0.1
			C-60-7.7-60-7.7-60.2-7.6L-60.2-7.6z M-59.3-7.6l-0.2,0.1h-0.1l-0.1-0.1v-0.2l0.2-0.2l0.2,0.2L-59.3-7.6L-59.3-7.6z M-58.9-5.8
			l-0.3,0.4h-0.2c-0.1-0.1-0.2-0.2-0.2-0.3v-0.9L-60-6.8c0,0.1-0.2,0.1-0.1,0l0.4-0.4h0.1l0.3,0.3V-6C-59.2-5.9-59.1-5.8-58.9-5.8
			L-58.9-5.8z M-57.3-6.8l-0.8,0.1c0,0.3,0,0.6,0,0.9c0,0.1,0.1,0.2,0.2,0.1s0.2,0.1,0.1,0.1S-58-5.3-58-5.2s-0.3-0.2-0.3-0.3
			c-0.1-0.4-0.1-0.8-0.1-1.2c0,0-0.3-0.1-0.2-0.2c0.3-0.1,0.5-0.4,0.6-0.6c0-0.1,0.1-0.1,0.1,0.1C-58-7.4-58.1-7.2-58-7
			c0.2,0,0.5,0,0.7,0C-57.3-7-57.3-6.8-57.3-6.8L-57.3-6.8z M-58.1-3.9c0,0.3,0.1,0.5,0.4,0.7c0.2,0,0.3,0.1,0.5,0
			c0.1,0,0,0,0.1-0.1s0.1,0,0.1,0l-0.6,0.5c-0.2,0-0.3,0-0.5-0.2c-0.2-0.3-0.4-0.4-0.3-0.9c0.1-0.5,0.7-0.7,0.8-0.8l0.5,0.4
			C-57.2-4-57.3-4-57.4-4c-0.2,0-0.2-0.1-0.3-0.2C-57.9-4.2-58-4.1-58.1-3.9L-58.1-3.9z M-55.7-5.4L-56-4.9
			c-0.1-0.1-0.2-0.2-0.2-0.3c-0.2,0.1-0.4,0.2-0.6,0.3c-0.2-0.2-0.3-0.4-0.3-0.6c0-0.2,0.1-0.4,0.2-0.6h0L-57-6.2c0-0.1,0-0.1,0-0.2
			c0.1-0.2,0.3-0.3,0.5-0.4c0.2,0,0.5,0.1,0.6,0.2c0,0.3,0,0.6,0,0.9C-55.8-5.5-55.7-5.4-55.7-5.4L-55.7-5.4z M-54.9-3.6l-0.3,0
			c-0.1,0,0-0.2,0-0.2l0.3,0C-54.8-3.7-54.8-3.6-54.9-3.6L-54.9-3.6z M-54.9-3.3l-0.3,0c-0.1,0,0-0.2,0-0.2l0.3,0
			C-54.8-3.4-54.8-3.3-54.9-3.3L-54.9-3.3z M-56.8-1.5c0.1-0.1,0.4-0.3,0.5-0.4c0.1,0.1,0.2,0.2,0.3,0.4l0.4-0.2l0.4,0.3
			c0.1-0.1,0.2,0,0.1,0.1l-0.3,0.3c-0.1-0.1-0.2-0.2-0.3-0.3L-56-1.4v1.2h-0.4v-1.1C-56.4-1.4-56.7-1.5-56.8-1.5L-56.8-1.5z
			 M-56.9-3.4c0-0.5,0.4-0.9,0.8-1.1c0.3,0.1,0.6,0.4,0.6,0.8c0,0.2-0.1,0.5-0.2,0.7c-0.2,0.1-0.3,0.2-0.5,0.4
			C-56.7-2.5-56.9-3.1-56.9-3.4L-56.9-3.4z M-58.8-1.8c0.1-0.1,0.3-0.3,0.4-0.4c0.1,0.1,0.2,0.2,0.3,0.3c0,0.2,0,0.7,0,0.8
			s0.6,0.2,0.6,0c0-0.2,0-0.4,0-0.6c0-0.1-0.2-0.1-0.4-0.1l0.4-0.4c0.2,0.1,0.3,0.3,0.4,0.4c0,0.3,0,0.6,0,0.9c0,0.1,0,0.1,0.1,0.2
			l-0.3,0.2c-0.2-0.1-0.3-0.2-0.3-0.4c-0.2,0.1-0.4,0.2-0.7,0.3c-0.2-0.2-0.2-0.2-0.3-0.4c0-0.3,0-0.5,0-0.8
			C-58.6-1.8-58.7-1.8-58.8-1.8C-58.8-1.8-58.8-1.8-58.8-1.8z M-59.1-3.2c-0.2-0.1-0.3-0.3-0.5-0.4c-0.2,0.2-0.2,0.5-0.6,0.6
			c0.2-0.2,0.4-0.6,0.4-0.9c0-0.2-0.1-0.5-0.3-0.6l-0.3,0.2c0,0-0.1,0-0.1,0c0,0,0-0.1,0-0.1c0.2-0.1,0.4-0.3,0.6-0.4
			c0.2,0,0.3,0.1,0.4,0.3c0.1-0.1,0.3-0.3,0.4-0.4c0.1,0.2,0.3,0.3,0.5,0.4c-0.2,0.4-0.7,0.2-0.8,0.1c-0.1,0.1-0.1,0.3,0,0.4
			c0.2,0.2,0.4,0.4,0.7,0.5C-58.8-3.5-59-3.3-59.1-3.2L-59.1-3.2z M-59.7-2c0,0-0.3-0.1-0.2-0.2c0.2-0.1,0.4-0.3,0.6-0.5
			c0-0.1,0.1,0,0.1,0c0,0.1-0.1,0.3,0,0.4c0,0,0.2,0,0.3,0s0,0.2,0,0.2h-0.3c0,0.3,0,0.6,0,0.9C-59.2-1-59.1-1-59-1
			c0.1-0.1,0.2,0,0,0.1c-0.1,0.1-0.2,0.3-0.3,0.3c-0.2,0-0.3,0-0.4-0.1C-59.8-1.2-59.8-1.6-59.7-2L-59.7-2z M-60.5-0.7
			c-0.1-0.1-0.2-0.1-0.3-0.3c-0.2,0.1-0.5,0.3-0.6,0.4c-0.1-0.1-0.2-0.3-0.2-0.5c0-0.2,0.1-0.4,0.3-0.6h0c-0.1-0.1-0.1-0.3,0-0.4
			c0.1-0.1,0.3-0.5,0.6-0.5c0.2,0,0.3,0.2,0.4,0.3c0,0.3,0,0.5,0,0.8c0.2,0.1,0.2,0.2,0.3,0.1s0.1,0,0,0L-60.5-0.7z M-60.8-1.5
			c0-0.1,0-0.2,0-0.4c0-0.1-0.2-0.3-0.3-0.3c0,0-0.1,0-0.2,0.2c0,0.1,0,0.2,0,0.4C-61.1-1.5-60.9-1.5-60.8-1.5L-60.8-1.5z
			 M-61.1-1.4c-0.2,0.3,0,0.4,0.1,0.5l0.3-0.2v-0.3C-60.8-1.5-61-1.3-61.1-1.4L-61.1-1.4z M-56.5-3.3c0.1,0.2,0.3,0.4,0.5,0.5
			c0.2-0.2,0.2-0.5,0.2-0.8c0-0.2-0.3-0.4-0.5-0.5C-56.6-3.9-56.7-3.6-56.5-3.3L-56.5-3.3z M-56.5-5.2l0.3-0.1c0-0.1,0-0.1,0-0.2
			s0-0.2,0-0.3L-56.7-6l0.1,0.1C-56.8-5.7-56.7-5.4-56.5-5.2L-56.5-5.2z M-56.9-6.2c0.2,0.1,0.4,0.2,0.7,0.3c0-0.1,0-0.2,0-0.4
			c0-0.1-0.3-0.3-0.4-0.3c0,0-0.2,0.1-0.2,0.2S-56.9-6.3-56.9-6.2L-56.9-6.2z M-63.8,2.1c-0.3,0-0.6,0.2-0.7,0.5
			c-0.2,0.2-0.2-0.3-0.5-0.1s0.2,0.7,0.2,0.7c-0.1,0-0.3-0.6-0.6-0.6c-0.2,0-1.1,0.9-0.3,1.4c0-0.4,0.7-0.8,1,0.1
			c0.5-0.1,0.9,0.2,1.1,0.7C-62.6,5-63,5.7-63,5.7c0,0-0.6-0.9-1.4-0.4c-0.2,0.1-0.5,0.2-0.7,0.1c0,0.2,0.3,0.4,0.5,0.4
			c0.7-0.2,0.9,0.4,0.3,0.6c0.1,0.2,0.3,0.2,0.5,0.1c0,0,0,0,0,0c0.2-0.1,0.3-0.3,0.5-0.4c0.2,0.9-1,1-1.3,1
			c0.1,0.2,0.2,0.2,0.4,0.3c-0.8,0.1-1.4,0.8-1.4,1.6c0,0.1,0,0.2,0,0.2c0.3,0,0.7-0.6,0.7-0.2c-0.8,0.7-1.1,1.9-0.7,2.9
			c0.2-0.1,0.3-0.3,0.3-0.5c0.1-0.2,0.5,0.2-0.2,1c-0.1,0.2-0.3,0.9,0.2,1c0.1-0.2,0.2-0.4,0.2-0.7c0.1-0.2,0.2,0.4,0.2,0.6
			c-0.7,0.3-0.6,2.4,0.2,3.6c-0.3-0.9-0.3-1.9,0-2.8c0.2-0.7,0.8-2.2,0.8-2.2c0.3,0.9,0.6,1.8,0.7,2.7c0.4-0.4,0.5-0.8,0.9-1.1
			c0.2,0.6,0.2,1,0.4,1.5c0.4-0.9,0.4-1.9,0-2.8c0.1-0.1,0.4,0.6,0.5,0.6s0.2-0.4-0.1-1s-0.6-1.1-0.5-1.1s0.3,0.7,0.5,0.7
			c0.1-0.5,0.1-1,0.2-1.5c-0.1-0.4-0.4-0.8-0.7-1.1c-0.2-0.2-0.4-0.6-0.4-0.9c0.3,0.3,0.2,0.5,0.5,0.6c0.1-0.5,0-1-0.2-1.4
			c-0.2-0.3-0.1-0.2,0.1-0.1s0.1,0.3,0.4,0.4c0.5-1.2,0-1.4,0.1-1.5c0-0.1,0.4,0.6,0.7,0.3c-0.5-0.2-0.5-0.7-0.5-1.1
			c0-0.4-0.2-0.4-0.2-0.6c0.5,0.4,0.6-0.1,0.6-0.1s-0.5,0.1-0.6-0.6c0-0.3-0.4-0.4-0.4-0.4s1.1-0.1,0.9-0.9
			c-0.2,0.3-0.5,0.5-0.8,0.4c0.2-0.1,0.3-0.2,0.2-0.4C-62.3,2.9-63,2.1-63.8,2.1L-63.8,2.1z M-62.4,3.2c-0.5,0.1-0.9,0.7-1.5,0.4
			c-0.1,0-0.2-0.1-0.2-0.2c0.1,0.1,0.2,0.1,0.4,0.1c-0.2-0.1-0.2-0.4,0-0.6c0,0,0,0,0,0c-0.3,0.2-0.5,0.2-0.5,0
			c0.2-0.2,0.6-0.3,0.9-0.2C-63,3-62.7,3.1-62.4,3.2L-62.4,3.2z M-63.2,3.2c0,0.1-0.1,0.2-0.2,0.3l0.6-0.3C-63,3.1-63.2,3-63.4,2.9
			C-63.3,3-63.2,3.1-63.2,3.2z M-66.5,0.2c0.9,0.1,1.8,0.3,2.6,0.7v-9.1c0,0-2.1-1.4-5.4-0.1C-70.5-8-71.6-8-72.7-8.2v9.3
			C-70.6,1.2-67.9,0.2-66.5,0.2z M-67.5-4.6c0.3,0.1,0.7,0,0.8,0.4s-0.1,0.9-0.4,0.9s-0.5-0.1-0.7,0s-0.1,0-0.1,0.1s-0.1,0.1-0.1,0
			c0-0.2-0.1-0.4-0.1-0.7c0-0.1,0.1-0.1,0.1,0c0,0.1,0.1,0.3,0.2,0.3c0.2,0.2,0.5,0.2,0.8,0.1c0.1-0.1,0.1-0.3,0-0.5c0,0,0,0-0.1,0
			c-0.2-0.1-0.8-0.2-0.9-0.4c-0.1-0.2,0.2-0.6,0.3-0.7c0.2-0.1,0.4-0.1,0.6-0.1c0.1,0,0.2,0,0.2-0.1s0.1-0.1,0.1,0
			c0.1,0.1,0.1,0.3,0.1,0.4c0,0.3-0.1,0.1-0.1,0c-0.2-0.2-0.5-0.3-0.8-0.2C-67.9-4.9-67.8-4.7-67.5-4.6L-67.5-4.6z M-66.7-2.8
			L-67-2.4l-0.3-0.2c0.1-0.1,0.3-0.2,0.3-0.3C-67-2.9-66.8-2.8-66.7-2.8L-66.7-2.8z M-68.4-2.1c0.2-0.2,0.3-0.4,0.4-0.7
			c0-0.1,0.1-0.1,0.1,0c0,0.2-0.1,0.4-0.1,0.6c0.1,0,0.2,0,0.3,0c0.1,0,0.1,0.2,0,0.2H-68c0,0.2,0,0.4,0,0.6c0.1,0.1,0.2,0.2,0.3,0
			s0.1,0,0.1,0.1c-0.1,0.1-0.2,0.2-0.3,0.4c-0.1,0.1-0.3,0-0.4-0.1c-0.1-0.3-0.1-0.6-0.1-1C-68.3-1.9-68.6-2-68.4-2.1L-68.4-2.1z
			 M-68.7-3.2c-0.1,0.1-0.3,0-0.4-0.2c-0.1-0.3-0.1-0.7-0.1-1c0-0.4-0.1-0.1-0.2-0.1c-0.1,0-0.1-0.1,0-0.1c0.2-0.2,0.4-0.4,0.5-0.6
			c0-0.1,0.1,0,0.1,0.1c-0.1,0.2-0.1,0.4-0.1,0.6c0.2,0,0.3,0,0.4,0c0.1,0,0.1,0.2,0,0.2l-0.5,0.1c0,0.3,0,0.5,0.1,0.8
			c0,0,0.2,0.1,0.2,0.1s0.1,0,0.1,0.1C-68.5-3.3-68.6-3.2-68.7-3.2L-68.7-3.2z M-70.3-2l0.4-0.4c0.1,0.1,0.2,0.3,0.2,0.4
			c0.1,0.1,0.3-0.2,0.4-0.3c0.2,0.1,0.3,0.3,0.2,0.5C-69-1.6-69-1.1-69-1s0,0.1,0.1,0c0.1,0,0.1,0,0.1,0.1c-0.2,0.1-0.3,0.2-0.5,0.4
			c-0.1-0.2-0.1-0.4-0.1-0.6c0-0.2,0-0.5,0-0.7c0-0.1-0.2-0.1-0.2-0.2l-0.2,0.1c0,0.1,0,1.1,0,1.2h-0.3c0-0.2,0-0.9,0-1.1
			C-70.2-1.9-70.3-2-70.3-2L-70.3-2z M-71.8-1.5c0.1-0.6,0.7-0.9,0.9-1c0.1,0.2,0.2,0.4,0.3,0.6l-0.9,0.7c0.1,0.2,0.5,0.3,0.6,0.2
			s0.2,0,0.1,0.1c-0.1,0.2-0.3,0.3-0.3,0.5C-71.3-0.6-71.9-0.9-71.8-1.5L-71.8-1.5z M-71.9-4.4c0.2-0.2,0.4-0.4,0.7-0.5l0.3,0.4
			l-0.3,0.3c-0.1-0.1-0.3-0.5-0.6-0.2c-0.2,0.3-0.1,0.7,0.2,0.9c0.2,0.1,0.4,0.2,0.6,0.2c-0.1,0.1-0.2,0.2-0.2,0.3
			c-0.2,0.1-0.5,0-0.7-0.2C-72.2-3.6-72.2-4.1-71.9-4.4L-71.9-4.4z M-70.3-5.3c-0.1-0.1-0.1-0.2-0.2-0.1c-0.3,0.1-0.6,0.1-0.9,0.1
			c-0.3-0.1-0.6-0.5-0.5-0.9c0-0.3,0.2-0.7,0.6-0.8c0.3-0.1,0.6-0.1,0.9,0c0.2,0.1,0.2,0,0.2-0.1s0.1-0.1,0.1,0v0.9
			c0,0.1-0.1,0.1-0.1,0c0-0.1,0-0.3-0.1-0.4c-0.1-0.3-0.5-0.4-0.7-0.3c-0.1,0-0.2,0.1-0.2,0.2c-0.1,0.2-0.1,0.3-0.2,0.5
			c0,0.2,0.1,0.3,0.2,0.5c0.3,0.4,0.7,0.3,1-0.1c0.1-0.1,0.1-0.2,0.1-0.4c0-0.1,0.1-0.1,0.1,0v0.6c0,0.1,0,0.1,0.1,0.2
			C-70-5.2-70.1-5.2-70.3-5.3L-70.3-5.3z M-70-4.8c0.2,0,0.2,0.3,0.4,0.4c0,0.3,0,0.7,0,1c0,0.1,0.1,0.1,0.2,0.1c0.1,0,0.1,0,0.1,0
			l-0.4,0.4C-69.9-3-70-3.1-70-3.3c-0.2,0-0.3,0.2-0.4,0.3c-0.2-0.1-0.3-0.2-0.3-0.4c0-0.2,0.1-0.3,0.3-0.4l-0.1,0
			c-0.1-0.1-0.1-0.3-0.1-0.4C-70.5-4.5-70.3-4.7-70-4.8L-70-4.8z M-68.4-6.9l-0.3,0.2c-0.1-0.1-0.2-0.2-0.3-0.3l-0.1,0.1v1.2h-0.4
			v-1.1c0-0.1-0.2-0.2-0.3-0.2c0.1-0.1,0.2-0.2,0.4-0.3c0.2,0.1,0.2,0.1,0.3,0.2l0.4-0.2l0.2,0.3C-68.5-7.1-68.4-7-68.4-6.9
			L-68.4-6.9z M-67-5.9c-0.1,0.1-0.3,0.2-0.4,0.2s-1-0.3-0.9-0.9c0-0.4,0.4-0.8,0.8-0.9c0.2,0,0.3,0.2,0.4,0.3
			c0.1,0.1-0.5,0.5-0.7,0.7c0.1,0.3,0.4,0.4,0.8,0.4C-66.8-6.1-66.8-6-67-5.9L-67-5.9z M-65.2-7l-0.5,0.4h0.1
			c0.3,0.2,0.4,0.5,0.1,0.7c-0.2,0.2-0.5,0.3-0.8,0.3c-0.2,0-0.5-0.1-0.7-0.2l0.5-0.4c-0.2-0.2-0.4-0.4-0.2-0.6
			c0.2-0.3,0.5-0.4,0.8-0.5C-65.6-7.3-65.4-7.2-65.2-7L-65.2-7z M-65-5.3l0.2,0.2v0.2L-65-4.8h-0.1l-0.1-0.1v-0.2L-65-5.3L-65-5.3z
			 M-64.6-6.3c-0.5,0-0.3-0.2-0.3-0.2C-64.8-6.5-64.6-6.3-64.6-6.3L-64.6-6.3z M-64.6-6c-0.5-0.1-0.3-0.2-0.3-0.2
			C-64.8-6.2-64.6-6-64.6-6L-64.6-6z M-64.4-3.3l-0.2,0.2l-0.2,0.2C-65-3-65.1-3.1-65.1-3.2V-4l-0.2-0.1c-0.1,0.1-0.2,0.1-0.1,0
			l0.4-0.3h0.1l0.2,0.2v0.9C-64.6-3.3-64.6-3.3-64.4-3.3L-64.4-3.3z M-66.2-1.1c0-0.2,0.1-0.4,0.2-0.5h0C-66-1.7-66-1.9-66-2
			c0.1-0.2,0.3-0.4,0.6-0.5c0.2,0,0.3,0.3,0.5,0.4s0.1,0.9,0.1,1s0.2,0.1,0.2,0s0.1,0,0.1,0.1l-0.3,0.3c-0.1-0.1-0.2-0.2-0.3-0.3
			c-0.2,0.1-0.4,0.2-0.6,0.3C-66.1-0.7-66.2-0.9-66.2-1.1L-66.2-1.1z M-66.5-3.6c-0.1-0.3,0-0.6,0.2-0.8l0.5-0.3l0.3,0.2
			c0,0.1-0.1,0.2-0.2,0.2c-0.2,0-0.4-0.1-0.5,0.1s0,0.5,0.1,0.6s0.4,0.2,0.5,0.1s0.2-0.1,0.1,0l-0.2,0.4
			C-66.1-3.1-66.3-3.3-66.5-3.6L-66.5-3.6z M-66.4-1.1L-66.6-1l-0.2,0.2C-66.9-0.9-66.9-1-67-1.1v-0.8L-67.2-2c-0.1,0.1-0.2,0-0.1,0
			l0.4-0.3h0.1l0.2,0.3v0.8C-66.5-1.1-66.6-1.1-66.4-1.1L-66.4-1.1z M-65.8-1.5c-0.3,0.2,0,0.4,0.1,0.5l0.3-0.1c0,0,0-0.1,0-0.1
			c0-0.1,0-0.1,0-0.2C-65.5-1.4-65.7-1.4-65.8-1.5L-65.8-1.5z M-65.4-1.5c0-0.1,0-0.2,0-0.4c0-0.1-0.3-0.3-0.3-0.3
			c-0.1,0-0.1,0-0.2,0.2c0,0.1,0,0.2,0,0.3C-65.7-1.6-65.6-1.5-65.4-1.5L-65.4-1.5z M-65.9-6.6l0.2-0.2C-65.8-6.9-66-7-66.2-7
			c-0.1,0-0.3,0.1-0.2,0.2c0.1,0.1,0.2,0.2,0.3,0.2H-65.9z M-66.1-6.3L-66.4-6c0.1,0.1,0.4,0.3,0.6,0.3s0.3-0.3,0.1-0.4L-66.1-6.3
			L-66.1-6.3z M-67.9-6.5l0.5-0.4c-0.1-0.1-0.2-0.2-0.3-0.3C-68-7.1-68-6.9-67.9-6.5L-67.9-6.5z M-70-3.4v-0.5
			c0-0.2-0.2,0.2-0.4,0.1c-0.2-0.1,0.2,0.3,0.2,0.4L-70-3.4z M-70-3.9c0-0.1,0-0.2,0-0.3c0-0.1-0.1-0.2-0.2-0.3
			c-0.1,0-0.2,0.1-0.2,0.2s0,0.2,0,0.3C-70.3-3.8-70.2-3.8-70-3.9L-70-3.9z M-71.2-2.2c-0.5,0.3-0.4,0.7-0.2,0.9
			c0.2-0.1,0.4-0.3,0.6-0.4C-71-1.9-71.1-2-71.2-2.2L-71.2-2.2z M-74.3-1h1.1v-1.1h-1.1V-1L-74.3-1z M-74.3-4.9h1.1V-6h-1.1V-4.9z
			 M-75.7-2.6c-0.5,0-1,0.4-1,1c0,0.5,0.4,1,1,1c0.5,0,1-0.4,1-1C-74.7-2.2-75.1-2.6-75.7-2.6z M-75.7-6.6c-0.5,0-1,0.4-1,1
			c0,0.5,0.4,1,1,1s1-0.4,1-1S-75.1-6.6-75.7-6.6L-75.7-6.6z M-64.1,4.9c-0.1-0.2-0.2-0.3-0.4-0.4c-0.8-0.3-2.2,0.4-2.2-0.7
			c0,0-0.5,0.4-0.3,0.8C-66.4,5.5-64.9,4.4-64.1,4.9L-64.1,4.9z M-71,14.3c-0.4,0.4-0.6,0.4-0.6,0.6c0.1,0.3,0.3,0.5,0.5,0.7
			c0.2,0.2,0.3,0.4,0.2-0.2C-71,15.1-71.1,14.7-71,14.3L-71,14.3z M-74,6.2L-74,6.2c0,0.9-2.5,2.2-3.5,2.7c1.6,0.6,3.2-1,3-0.6
			s-2.2,2.2-3.1,3.1c0.7,0.2,1.3-0.4,1.8-0.8c0.5-0.4,1.4-1.6,1.3-1c-1.5,1.8-2.6,5.6-1.9,5.8c0.4-0.9,2.1-5.2,2.2-5.1
			c0,0.6-0.1,1.3-0.2,1.9c-0.1,1.3-0.1,2.7,0.2,4c0.2-0.2,0.3-0.2,0.6-0.2s0-0.1-0.2-0.4c-0.5-0.6,0.1-1.5-0.2-2s-0.3-0.1-0.4-0.5
			c0.2-0.1,0.4-0.2,0.6-0.2c0.2-1.7,0.7-2.5,0.5-1.5c-0.1,0.5-0.2,0.9-0.2,1.4l0.2,0.1c0,0,2.8-4.6,1.3-1.4c-0.3,0.5-0.7,1.1-1,1.5
			c0.2,0.2,0.4,0.4,0.4,0.6c0,0.1,3.7-4.9,1.2-0.9c-0.2,0.2-0.9,1.1-1.1,1.3s0.1,0.9,0.1,0.9c0.4-0.3,0.8-0.7,1.2-1.2
			c0-0.3,0-0.6,0.1-0.9c0.1-0.1,0.3,0.1,0.5,0.3s2.6-4.2,1-1c-0.2,0.4-0.5,0.8-0.8,1.2c0.2,0.3,0.3,0.6,0.4,0.9c0,0,3.3-4.8,1.3-1.1
			c-0.2,0.3-1.1,1.5-1.1,1.5c0.2,0.6,0.5,1.2,0.5,1.2c-0.2-0.8,0.1-1.6,0.8-2.1c0,0.4,0.2,0.9,0.6,1.1c0.3,0.2,0.3,0.6,0.4,0.2
			c0.1-1.2-0.3-1.1-0.6-1.6c-0.1-0.1-0.1-0.4,0-0.4c2.4,0.1,2.3,2.3,2.7,2.3c-0.2-0.5-0.2-1.1,0-1.6c-0.4-0.4-0.5-1.1-0.2-1.6
			c-0.5-0.8-0.5-1.9,0-2.7c-0.5-0.7,0.1-1.1,0-1.5c-0.2-1.4-1.5-1-1.8-2.4c-0.2,0.2-0.6,1.1-0.4,1.4s0.6,0.3,0.7,0.6s0.1,0.4,0,0.4
			c-0.1,0.1-0.4-0.2-0.7-0.3c-0.3-0.1-1.7,0.6-1.8-0.1s0.2-0.1,0.1-0.6s-0.2-0.1-0.2-0.7s0.5-0.6,0.5-0.7s0.8,0.6,1.3-0.5
			c-0.2,0-0.8-0.2-0.7-0.4c0.1-0.7,0.2-2.3-1.4-2c-0.6,0.1-2.1,0.9-2.3,0c-0.6,1,0.5,0.8,0.9,0.8c-0.2,0.2-0.5,0.2-0.7,0.2
			c-0.8,0.6-4,2.6-4.9,3.1C-75.8,7.4-74,6.2-74,6.2z M-73.1,17.2c-0.3-0.1-0.6-0.2-0.9-0.4c0.2,0.7,0.4,1.3,0.7,1.9
			C-73,19.1-72.7,18.1-73.1,17.2L-73.1,17.2z"/>
	</g>
	<line id="Line_28" class="st2" x1="602.3" y1="19.5" x2="602.3" y2="87.1"/>
</g>
<rect x="237.7" y="29.4" class="st3" width="101" height="25.6"/>
<g class="st4">
	<path class="st1" d="M238.2,38.2l1.3-1.5c0.9,0.7,1.8,1.2,2.9,1.2c0.9,0,1.4-0.4,1.4-0.9v0c0-0.5-0.3-0.8-2-1.2
		c-2-0.5-3.2-1.1-3.2-3v0c0-1.8,1.4-3,3.4-3c1.4,0,2.6,0.4,3.6,1.2l-1.1,1.6c-0.9-0.6-1.7-1-2.5-1c-0.8,0-1.3,0.4-1.3,0.9v0
		c0,0.6,0.4,0.9,2.1,1.3c2,0.5,3.1,1.2,3.1,2.9v0c0,1.9-1.5,3-3.6,3C240.9,39.8,239.4,39.3,238.2,38.2z"/>
	<path class="st1" d="M247.6,37v-4.9h2.1v4.2c0,1,0.5,1.5,1.3,1.5s1.3-0.5,1.3-1.5v-4.2h2.1v7.5h-2.1v-1.1c-0.5,0.6-1.1,1.2-2.2,1.2
		C248.5,39.8,247.6,38.7,247.6,37z"/>
	<path class="st1" d="M256.4,32.1h2.1v1.1c0.5-0.6,1.1-1.2,2.2-1.2c1,0,1.7,0.4,2.1,1.2c0.7-0.8,1.4-1.2,2.5-1.2
		c1.6,0,2.5,1,2.5,2.8v4.9h-2.1v-4.2c0-1-0.4-1.5-1.2-1.5c-0.8,0-1.3,0.5-1.3,1.5v4.2H261v-4.2c0-1-0.4-1.5-1.2-1.5
		s-1.3,0.5-1.3,1.5v4.2h-2.1V32.1z"/>
	<path class="st1" d="M269.7,32.1h2.1v1.1c0.5-0.6,1.1-1.2,2.2-1.2c1,0,1.7,0.4,2.1,1.2c0.7-0.8,1.4-1.2,2.5-1.2
		c1.6,0,2.5,1,2.5,2.8v4.9H279v-4.2c0-1-0.4-1.5-1.2-1.5s-1.3,0.5-1.3,1.5v4.2h-2.1v-4.2c0-1-0.4-1.5-1.2-1.5s-1.3,0.5-1.3,1.5v4.2
		h-2.1V32.1z"/>
	<path class="st1" d="M282.6,35.9L282.6,35.9c0-2.2,1.5-3.9,3.7-3.9c2.5,0,3.7,1.9,3.7,4.1c0,0.2,0,0.4,0,0.6h-5.2
		c0.2,1,0.9,1.5,1.8,1.5c0.7,0,1.2-0.2,1.8-0.8l1.2,1.1c-0.7,0.9-1.7,1.4-3.1,1.4C284.3,39.8,282.6,38.2,282.6,35.9z M287.9,35.3
		c-0.1-1-0.7-1.6-1.6-1.6c-0.9,0-1.5,0.6-1.6,1.6H287.9z"/>
	<path class="st1" d="M291.5,32.1h2.1v1.5c0.4-1,1.1-1.7,2.4-1.7v2.2H296c-1.4,0-2.3,0.9-2.3,2.6v2.8h-2.1V32.1z"/>
</g>
<g class="st4">
	<path class="st1" d="M238.2,53l1.3-1.5c0.9,0.7,1.8,1.2,2.9,1.2c0.9,0,1.4-0.4,1.4-0.9v0c0-0.5-0.3-0.8-2-1.2c-2-0.5-3.2-1.1-3.2-3
		v0c0-1.8,1.4-3,3.4-3c1.4,0,2.6,0.4,3.6,1.2l-1.1,1.6c-0.9-0.6-1.7-1-2.5-1c-0.8,0-1.3,0.4-1.3,0.9v0c0,0.6,0.4,0.9,2.1,1.3
		c2,0.5,3.1,1.2,3.1,2.9v0c0,1.9-1.5,3-3.6,3C240.9,54.6,239.4,54.1,238.2,53z"/>
	<path class="st1" d="M247.3,50.7L247.3,50.7c0-2.2,1.5-3.9,3.7-3.9c2.5,0,3.7,1.9,3.7,4.1c0,0.2,0,0.4,0,0.6h-5.2
		c0.2,1,0.9,1.5,1.8,1.5c0.7,0,1.2-0.2,1.8-0.8l1.2,1.1c-0.7,0.9-1.7,1.4-3.1,1.4C248.9,54.6,247.3,53,247.3,50.7z M252.6,50.1
		c-0.1-1-0.7-1.6-1.6-1.6c-0.9,0-1.5,0.6-1.6,1.6H252.6z"/>
	<path class="st1" d="M255.6,53.4l0.9-1.4c0.8,0.6,1.7,0.9,2.4,0.9c0.6,0,0.9-0.2,0.9-0.6v0c0-0.5-0.7-0.6-1.6-0.9
		c-1-0.3-2.2-0.8-2.2-2.3v0c0-1.5,1.2-2.4,2.7-2.4c1,0,2,0.3,2.8,0.9l-0.8,1.5c-0.7-0.4-1.5-0.7-2-0.7c-0.5,0-0.8,0.2-0.8,0.5v0
		c0,0.4,0.7,0.6,1.5,0.9c1,0.3,2.3,0.9,2.3,2.2v0c0,1.7-1.2,2.4-2.9,2.4C257.8,54.6,256.6,54.2,255.6,53.4z"/>
	<path class="st1" d="M262.5,53.4l0.9-1.4c0.8,0.6,1.7,0.9,2.4,0.9c0.6,0,0.9-0.2,0.9-0.6v0c0-0.5-0.7-0.6-1.6-0.9
		c-1.1-0.3-2.2-0.8-2.2-2.3v0c0-1.5,1.2-2.4,2.7-2.4c1,0,2,0.3,2.8,0.9l-0.8,1.5c-0.7-0.4-1.5-0.7-2-0.7c-0.5,0-0.8,0.2-0.8,0.5v0
		c0,0.4,0.7,0.6,1.5,0.9c1.1,0.3,2.3,0.9,2.3,2.2v0c0,1.7-1.2,2.4-2.9,2.4C264.7,54.6,263.5,54.2,262.5,53.4z"/>
	<path class="st1" d="M270.2,44.2h2.2v1.9h-2.2V44.2z M270.2,46.9h2.1v7.5h-2.1V46.9z"/>
	<path class="st1" d="M274,50.7L274,50.7c0-2.2,1.7-3.9,4.1-3.9c2.3,0,4,1.7,4,3.9v0c0,2.2-1.7,3.9-4.1,3.9
		C275.7,54.6,274,52.9,274,50.7z M280,50.7L280,50.7c0-1.1-0.8-2.1-2-2.1c-1.2,0-1.9,0.9-1.9,2v0c0,1.1,0.8,2.1,2,2.1
		C279.3,52.8,280,51.8,280,50.7z"/>
	<path class="st1" d="M283.7,46.9h2.1V48c0.5-0.6,1.1-1.2,2.2-1.2c1.6,0,2.5,1.1,2.5,2.8v4.9h-2.1v-4.2c0-1-0.5-1.5-1.3-1.5
		s-1.3,0.5-1.3,1.5v4.2h-2.1V46.9z"/>
</g>
</svg>
